<svg xmlns="http://www.w3.org/2000/svg" viewBox="0 0 24 24" fill="none">
  <defs>
    <linearGradient id="paperGradient" x1="0%" y1="0%" x2="100%" y2="100%">
      <stop offset="0%" stop-color="#F8FAFF"/>
      <stop offset="100%" stop-color="#EBF5FF"/>
    </linearGradient>
    <filter id="shadow" x="-20%" y="-20%" width="140%" height="140%">
      <feGaussianBlur in="SourceAlpha" stdDeviation="0.5"/>
      <feOffset dx="0.5" dy="0.5"/>
      <feComposite in2="SourceAlpha" operator="arithmetic" k2="-1" k3="1"/>
      <feColorMatrix type="matrix" values="0 0 0 0 0.231   0 0 0 0 0.510   0 0 0 0 0.965  0 0 0 0.3 0"/>
    </filter>
  </defs>
  <path d="M14 2H6a2 2 0 0 0-2 2v16a2 2 0 0 0 2 2h12a2 2 0 0 0 2-2V8z" fill="url(#paperGradient)" filter="url(#shadow)"/>
  <path d="M14 2H6a2 2 0 0 0-2 2v16a2 2 0 0 0 2 2h12a2 2 0 0 0 2-2V8z" stroke="#3B82F6" stroke-width="1.5" fill="none"/>
  <path d="M14 2v6h6" stroke="#3B82F6" stroke-width="1.5"/>
  <path d="M14 2l6 6" stroke="#93C5FD" stroke-width="0.5" opacity="0.6"/>
  <path d="M14 3v4h4" stroke="#FFFFFF" stroke-width="0.5" opacity="0.3"/>
  <g class="nodes">
    <circle cx="8" cy="13" r="1.5" fill="#3B82F6" filter="url(#glow)"/>
    <circle cx="12" cy="15" r="1.5" fill="#3B82F6" filter="url(#glow)"/>
    <circle cx="16" cy="13" r="1.5" fill="#3B82F6" filter="url(#glow)"/>
    <circle cx="8" cy="13" r="0.6" fill="#FFFFFF" opacity="0.8"/>
    <circle cx="12" cy="15" r="0.6" fill="#FFFFFF" opacity="0.8"/>
    <circle cx="16" cy="13" r="0.6" fill="#FFFFFF" opacity="0.8"/>
  </g>
  <g class="connections">
    <path d="M8 13h4l4 0" stroke="#3B82F6" stroke-width="1.2">
      <animate attributeName="stroke-opacity" values="0.4;1;0.4" dur="2s" repeatCount="indefinite"/>
    </path>
    <path d="M12 15v-2" stroke="#3B82F6" stroke-width="1.2">
      <animate attributeName="stroke-opacity" values="0.4;1;0.4" dur="2s" repeatCount="indefinite"/>
    </path>
  </g>
  <g class="data-lines">
    <line x1="7" y1="17" x2="17" y2="17" stroke="#3B82F6" stroke-width="1.2" stroke-dasharray="2,2">
      <animate attributeName="stroke-dashoffset" from="4" to="0" dur="1.5s" repeatCount="indefinite"/>
    </line>
    <line x1="7" y1="19" x2="13" y2="19" stroke="#3B82F6" stroke-width="1.2" stroke-dasharray="2,2">
      <animate attributeName="stroke-dashoffset" from="4" to="0" dur="1.5s" repeatCount="indefinite" begin="0.5s"/>
    </line>
  </g>
  <g class="decorative-lines" opacity="0.6">
    <path d="M7 6h4" stroke="#3B82F6" stroke-width="1"/>
    <path d="M7 8h2" stroke="#3B82F6" stroke-width="1"/>
  </g>
  <defs>
    <filter id="glow" x="-50%" y="-50%" width="200%" height="200%">
      <feGaussianBlur in="SourceGraphic" stdDeviation="0.5"/>
      <feColorMatrix type="matrix" values="0 0 0 0 0.376   0 0 0 0 0.647   0 0 0 0 0.980  0 0 0 1 0"/>
      <feBlend in2="SourceGraphic" mode="normal"/>
    </filter>
    
    <radialGradient id="nodeGlow" cx="0.5" cy="0.5" r="0.5">
      <stop offset="0%" stop-color="#60A5FA"/>
      <stop offset="100%" stop-color="#60A5FA" stop-opacity="0"/>
    </radialGradient>
  </defs>
  <circle cx="8" cy="13" r="2.5" fill="url(#nodeGlow)" opacity="0.3">
    <animate attributeName="opacity" values="0.3;0.1;0.3" dur="2s" repeatCount="indefinite"/>
  </circle>
  <circle cx="16" cy="13" r="2.5" fill="url(#nodeGlow)" opacity="0.3">
    <animate attributeName="opacity" values="0.3;0.1;0.3" dur="2s" repeatCount="indefinite" begin="0.5s"/>
  </circle>
</svg>
